<?xml version="1.0" encoding="iso-8859-1"?>
<!-- Generator: Adobe Illustrator 19.0.0, SVG Export Plug-In . SVG Version: 6.00 Build 0)  -->
<svg version="1.1" id="Layer_1" xmlns="http://www.w3.org/2000/svg" xmlns:xlink="http://www.w3.org/1999/xlink" x="0px" y="0px"
	 viewBox="0 0 511.998 511.998" style="enable-background:new 0 0 511.998 511.998;" xml:space="preserve">
<g>
	<g>
		<g>
			<path d="M212.016,405.057c-81.907,0-148.544-66.637-148.544-148.544c0-81.908,66.636-148.545,148.544-148.545
				c39.124,0,76.053,15.082,103.986,42.467c28.734,28.171,44.559,65.843,44.559,106.078c0,28.514-8.098,56.208-23.417,80.089
				c-2.982,4.648-1.63,10.835,3.018,13.816c4.648,2.982,10.835,1.63,13.816-3.018c17.391-27.111,26.583-58.538,26.583-90.888
				c0-45.652-17.955-88.396-50.558-120.359c-31.694-31.074-73.595-48.186-117.987-48.186c-92.936,0-168.544,75.609-168.544,168.545
				s75.608,168.544,168.544,168.544c5.523,0,10-4.477,10-9.999C222.016,409.535,217.539,405.057,212.016,405.057z"/>
			<path d="M289.757,383.114c-12.247,7.538-25.482,13.236-39.336,16.932c-5.336,1.424-8.508,6.904-7.084,12.24
				c1.194,4.473,5.237,7.425,9.656,7.425c0.853,0,1.721-0.11,2.584-0.341c15.733-4.199,30.76-10.666,44.664-19.223
				c4.703-2.896,6.169-9.055,3.274-13.758C300.619,381.685,294.461,380.221,289.757,383.114z"/>
			<path d="M348.999,129.528c2.559,0,5.119-0.976,7.071-2.928l10.529-10.529c3.905-3.906,3.905-10.238,0-14.143
				c-3.906-3.904-10.238-3.904-14.143,0l-10.528,10.528c-3.905,3.906-3.905,10.238,0,14.143
				C343.88,128.551,346.44,129.528,348.999,129.528z"/>
			<path d="M386.734,91.792c2.559,0,5.119-0.977,7.071-2.929l9.694-9.694c6.495,3.989,14.13,6.294,22.296,6.294
				c23.562,0,42.731-19.17,42.731-42.732C468.526,19.169,449.357,0,425.795,0c-23.563,0-42.732,19.169-42.732,42.731
				c0,8.165,2.305,15.8,6.294,22.295l-9.694,9.694c-3.905,3.905-3.905,10.237,0,14.143
				C381.616,90.815,384.175,91.792,386.734,91.792z M425.795,20.001c12.534,0,22.731,10.197,22.731,22.731
				c0.001,12.535-10.196,22.732-22.731,22.732c-12.534,0-22.732-10.197-22.732-22.732C403.063,30.198,413.261,20.001,425.795,20.001
				z"/>
			<path d="M425.795,426.536c-8.43,0-16.29,2.464-22.918,6.694L263.911,294.265c7.736-10.605,12.317-23.651,12.317-37.753
				s-4.581-27.148-12.317-37.753L308.07,174.6c3.905-3.905,3.905-10.237,0-14.143c-3.905-3.904-10.237-3.904-14.143,0
				l-44.159,44.159c-10.605-7.736-23.651-12.317-37.753-12.317c-35.407,0-64.212,28.806-64.212,64.212
				c0,35.406,28.805,64.212,64.212,64.212c14.102,0,27.148-4.581,37.753-12.317l139.209,139.208
				c-3.752,6.355-5.914,13.755-5.914,21.653c0,23.563,19.169,42.731,42.732,42.731c23.562,0,42.731-19.169,42.731-42.731
				C468.526,445.705,449.357,426.536,425.795,426.536z M249.524,279.878c-3.577,5.72-8.422,10.566-14.142,14.142
				c-6.785,4.242-14.792,6.704-23.366,6.704c-24.378,0-44.212-19.833-44.212-44.212c0-24.379,19.833-44.212,44.212-44.212
				c8.574,0,16.581,2.462,23.366,6.703c5.721,3.577,10.566,8.422,14.143,14.142c4.242,6.785,6.704,14.792,6.704,23.366
				C256.229,265.085,253.766,273.093,249.524,279.878z M425.795,492c-12.534,0-22.732-10.197-22.732-22.731
				c0-2.291,0.344-4.503,0.977-6.59c2.042-6.728,7.126-12.142,13.643-14.641c2.521-0.966,5.254-1.501,8.111-1.501
				c12.534,0,22.731,10.197,22.731,22.732C448.527,481.803,438.33,492,425.795,492z"/>
		</g>
	</g>
</g>
<g>
</g>
<g>
</g>
<g>
</g>
<g>
</g>
<g>
</g>
<g>
</g>
<g>
</g>
<g>
</g>
<g>
</g>
<g>
</g>
<g>
</g>
<g>
</g>
<g>
</g>
<g>
</g>
<g>
</g>
</svg>
