<?xml version="1.0" encoding="iso-8859-1"?>
<!-- Generator: Adobe Illustrator 16.0.0, SVG Export Plug-In . SVG Version: 6.00 Build 0)  -->
<!DOCTYPE svg PUBLIC "-//W3C//DTD SVG 1.1//EN" "http://www.w3.org/Graphics/SVG/1.1/DTD/svg11.dtd">
<svg version="1.1" id="Capa_1" xmlns="http://www.w3.org/2000/svg" xmlns:xlink="http://www.w3.org/1999/xlink" x="0px" y="0px"
	 width="512px" height="512px" viewBox="0 0 512 512" style="enable-background:new 0 0 512 512;" xml:space="preserve">
<g>
	<g>
		<path d="M384,224H32c-17.688,0-32,14.313-32,32v224c0,17.688,14.313,32,32,32h352c17.688,0,32-14.312,32-32V256
			C416,238.313,401.688,224,384,224z M80.5,288H96c11.719,0,21.5,6.625,27.094,16H80.5V288z M80.5,320H128v16H80.5V320z M32,320
			c0-17.688,14.313-32,32-32h0.5v96H64c-17.688,0-32-14.312-32-32V320z M96,448H32v-32h64V448z M96,384H80.5v-32H128
			C128,369.688,113.688,384,96,384z M192,448h-64v-32h64V448z M288,448h-64v-32h64V448z M384,448h-64v-32h64V448z M336,384
			c-12.344,0-23.5-4.812-32-12.438C295.5,379.188,284.344,384,272,384c-26.5,0-48-21.5-48-48s21.5-48,48-48
			c12.344,0,23.5,4.812,32,12.438c8.5-7.625,19.656-12.438,32-12.438c26.5,0,48,21.5,48,48S362.5,384,336,384z"/>
		<rect x="160" y="160" width="96" height="32"/>
		<path d="M480,0H128c-17.688,0-32,14.313-32,32v160h32v-64h352v128h-32v32h32c17.688,0,32-14.312,32-32V32
			C512,14.313,497.688,0,480,0z M480,64H128V32h352V64z"/>
		<rect x="384" y="160" width="64" height="32"/>
	</g>
</g>
<g>
</g>
<g>
</g>
<g>
</g>
<g>
</g>
<g>
</g>
<g>
</g>
<g>
</g>
<g>
</g>
<g>
</g>
<g>
</g>
<g>
</g>
<g>
</g>
<g>
</g>
<g>
</g>
<g>
</g>
</svg>
