<?xml version="1.0" encoding="iso-8859-1"?>
<!-- Generator: Adobe Illustrator 19.0.0, SVG Export Plug-In . SVG Version: 6.00 Build 0)  -->
<svg version="1.1" id="Layer_1" xmlns="http://www.w3.org/2000/svg" xmlns:xlink="http://www.w3.org/1999/xlink" x="0px" y="0px"
	 viewBox="0 0 512 512" style="enable-background:new 0 0 512 512;" xml:space="preserve">
<g>
	<g>
		<path d="M299.494,57.832C288.277,23.241,256.4,0,220.171,0h-20.945c-26.159,0-47.441,21.282-47.441,47.44v25.282
			c0,13.649,2.282,24.089,6.979,31.915c6.094,10.157,16.182,15.526,29.176,15.526h6.292c7.78,0,14.109,6.329,14.109,14.109v31.877
			c0,4.676,3.79,8.465,8.465,8.465s8.465-3.789,8.465-8.465v-31.877c0-17.114-13.924-31.039-31.039-31.039h-6.292
			c-6.239,0-19.224,0-19.224-30.511V47.44c0-16.823,13.688-30.51,30.511-30.51h20.945c28.867,0,54.272,18.537,63.218,46.124
			c1.441,4.447,6.215,6.883,10.664,5.441C298.5,67.054,300.937,62.279,299.494,57.832z"/>
	</g>
</g>
<g>
	<g>
		<path d="M450.419,423.63h-20.766v-0.001v-25.558c0-25.3-20.583-45.883-45.883-45.883h-16.955v-11.509
			c0-23.198-18.873-42.07-42.07-42.07h-32.371v-72.371h2.822c4.675,0,8.465-3.789,8.465-8.465V94.305
			c0-4.676-3.79-8.465-8.465-8.465s-8.465,3.789-8.465,8.465v115.003h-2.822h-55.817h-2.822v-9.297c0-4.676-3.79-8.465-8.465-8.465
			s-8.465,3.789-8.465,8.465v17.762c0,4.676,3.79,8.465,8.465,8.465h2.822v72.371h-32.371c-23.197,0-42.07,18.873-42.07,42.07
			v11.509h-16.954c-25.3,0-45.883,20.583-45.883,45.883v25.558H61.581c-23.198,0-42.07,18.873-42.07,42.07v37.835
			c0,4.676,3.79,8.465,8.465,8.465H339.06c4.675,0,8.465-3.789,8.465-8.465c0-4.676-3.79-8.465-8.465-8.465H36.442V465.7
			c0-13.862,11.278-25.139,25.139-25.139h29.232h330.374h29.232c13.862,0,25.139,11.278,25.139,25.139v29.37h-98.124
			c-4.675,0-8.465,3.789-8.465,8.465s3.79,8.465,8.465,8.465h106.589c4.675,0,8.465-3.789,8.465-8.465V465.7
			C492.489,442.502,473.617,423.63,450.419,423.63z M236.557,226.237h38.887v72.371h-38.887V226.237z M162.116,340.679
			c0-13.862,11.278-25.139,25.139-25.139h40.836h55.817h40.836c13.862,0,25.139,11.278,25.139,25.139v11.509H162.116V340.679z
			 M99.278,423.629v-25.558c0-15.965,12.988-28.952,28.952-28.952h25.419h204.7h25.419c15.965,0,28.952,12.988,28.952,28.952v25.558
			H99.278z"/>
	</g>
</g>
<g>
</g>
<g>
</g>
<g>
</g>
<g>
</g>
<g>
</g>
<g>
</g>
<g>
</g>
<g>
</g>
<g>
</g>
<g>
</g>
<g>
</g>
<g>
</g>
<g>
</g>
<g>
</g>
<g>
</g>
</svg>
