<?xml version="1.0" encoding="iso-8859-1"?>
<!-- Generator: Adobe Illustrator 16.0.0, SVG Export Plug-In . SVG Version: 6.00 Build 0)  -->
<!DOCTYPE svg PUBLIC "-//W3C//DTD SVG 1.1//EN" "http://www.w3.org/Graphics/SVG/1.1/DTD/svg11.dtd">
<svg version="1.1" id="Capa_1" xmlns="http://www.w3.org/2000/svg" xmlns:xlink="http://www.w3.org/1999/xlink" x="0px" y="0px"
	 width="368.955px" height="368.955px" viewBox="0 0 368.955 368.955" style="enable-background:new 0 0 368.955 368.955;"
	 xml:space="preserve">
<g>
	<g>
		<path d="M353.11,315.854h-9.596v-9.336c0-6.278-5.089-11.368-11.365-11.368h-2.936c0.013-0.275,0.043-0.546,0.043-0.823
			c0-8.13-5.086-15.093-12.285-17.875V126.79c7.178-2.771,12.285-9.745,12.285-17.888c0-0.563-0.038-1.116-0.087-1.667h12.896
			c6.745,0,12.21-5.464,12.21-12.21V61.651c0-5.334-3.463-10.052-8.554-11.65L188.133,0.559c-2.377-0.745-4.932-0.745-7.309,0
			L23.234,50c-5.091,1.599-8.554,6.316-8.554,11.65v33.374c0,6.746,5.465,12.21,12.21,12.21h12.897
			c-0.05,0.551-0.087,1.104-0.087,1.667c0,8.128,5.086,15.09,12.285,17.87v149.661c-7.178,2.774-12.285,9.748-12.285,17.894
			c0,0.276,0.03,0.548,0.044,0.824h-2.937c-6.276,0-11.365,5.088-11.365,11.366v9.336h-9.596c-6.28,0-11.369,5.091-11.369,11.369
			v30.367c0,6.275,5.089,11.367,11.369,11.367h337.262c6.279,0,11.369-5.092,11.369-11.367v-30.367
			C364.479,320.941,359.39,315.854,353.11,315.854z M272.839,126.772v149.66c-7.182,2.775-12.285,9.748-12.285,17.895
			c0,0.278,0.027,0.548,0.043,0.823h-41.812c0.015-0.275,0.043-0.546,0.043-0.823c0-8.13-5.084-15.093-12.28-17.875V126.79
			c7.176-2.771,12.28-9.745,12.28-17.888c0-0.563-0.036-1.116-0.084-1.667h41.896c-0.049,0.551-0.086,1.104-0.086,1.667
			C260.554,117.03,265.639,123.992,272.839,126.772z M150.213,107.235c-0.048,0.551-0.085,1.104-0.085,1.667
			c0,8.128,5.085,15.09,12.283,17.87v149.66c-7.178,2.775-12.283,9.748-12.283,17.895c0,0.277,0.029,0.548,0.044,0.823h-41.811
			c0.014-0.275,0.043-0.546,0.043-0.823c0-8.13-5.085-15.093-12.284-17.875V126.79c7.179-2.771,12.284-9.745,12.284-17.888
			c0-0.563-0.037-1.116-0.086-1.667H150.213L150.213,107.235z"/>
	</g>
</g>
<g>
</g>
<g>
</g>
<g>
</g>
<g>
</g>
<g>
</g>
<g>
</g>
<g>
</g>
<g>
</g>
<g>
</g>
<g>
</g>
<g>
</g>
<g>
</g>
<g>
</g>
<g>
</g>
<g>
</g>
</svg>
