<?xml version="1.0" encoding="iso-8859-1"?>
<!-- Generator: Adobe Illustrator 16.0.0, SVG Export Plug-In . SVG Version: 6.00 Build 0)  -->
<!DOCTYPE svg PUBLIC "-//W3C//DTD SVG 1.1//EN" "http://www.w3.org/Graphics/SVG/1.1/DTD/svg11.dtd">
<svg version="1.1" id="Capa_1" xmlns="http://www.w3.org/2000/svg" xmlns:xlink="http://www.w3.org/1999/xlink" x="0px" y="0px"
	 width="534.331px" height="534.331px" viewBox="0 0 534.331 534.331" style="enable-background:new 0 0 534.331 534.331;"
	 xml:space="preserve">
<g>
	<g>
		<polygon points="379.238,494.586 268.572,252.855 169.81,494.586 		"/>
		<circle cx="268.275" cy="206.114" r="33.861"/>
		<path d="M206.521,138.153c-3.882-3.596-9.917-3.385-13.512,0.517c-0.574,0.621-56.849,62.979-0.641,138.293
			c1.875,2.524,4.753,3.844,7.669,3.844c1.989,0,3.987-0.612,5.708-1.894c4.227-3.165,5.106-9.151,1.941-13.378
			c-46.512-62.328-2.543-111.785-0.622-113.889C210.632,147.754,210.393,141.729,206.521,138.153z"/>
		<path d="M140.482,89.174c-3.882-3.586-9.907-3.347-13.493,0.526c-1.004,1.09-24.834,27.157-36.892,69.366
			c-11.15,39.024-13.914,99.66,36.251,166.866c1.874,2.525,4.752,3.845,7.669,3.845c1.989,0,3.987-0.612,5.709-1.894
			c4.227-3.165,5.106-9.151,1.941-13.378c-86.521-115.946-4.179-207.956-0.631-211.819C144.603,98.785,144.354,92.75,140.482,89.174
			z"/>
		<path d="M67.596,376.662c1.989,0,3.988-0.612,5.709-1.894c4.227-3.165,5.106-9.151,1.941-13.378
			C-49.583,194.113,69.48,61.366,74.615,55.801c3.577-3.882,3.337-9.926-0.545-13.512c-3.892-3.576-9.907-3.356-13.502,0.526
			c-1.367,1.472-135.166,149.749-0.641,330.011C61.802,375.333,64.68,376.662,67.596,376.662z"/>
		<path d="M328.595,278.904c1.722,1.282,3.72,1.894,5.709,1.894c2.916,0,5.795-1.329,7.669-3.844
			c56.199-75.315-0.066-137.663-0.641-138.293c-3.586-3.863-9.63-4.122-13.512-0.517c-3.873,3.586-4.112,9.639-0.526,13.512
			c1.913,2.056,46.149,51.149-0.641,113.861C323.489,269.752,324.369,275.739,328.595,278.904z"/>
		<path d="M407.352,89.69c-3.596-3.882-9.648-4.112-13.512-0.516c-3.873,3.586-4.112,9.639-0.526,13.512
			c0.87,0.947,86.158,95.481-0.641,211.8c-3.165,4.228-2.285,10.213,1.941,13.378c1.722,1.282,3.72,1.894,5.709,1.894
			c2.916,0,5.795-1.329,7.669-3.844C504.22,197.001,408.337,90.762,407.352,89.69z"/>
		<path d="M460.261,42.28c-3.873,3.586-4.111,9.629-0.545,13.512c5.135,5.565,124.197,138.312-0.631,305.589
			c-3.166,4.228-2.286,10.213,1.94,13.378c1.722,1.282,3.721,1.894,5.709,1.894c2.917,0,5.795-1.329,7.669-3.844
			c134.525-180.263,0.728-328.53-0.641-330.012C470.177,38.942,464.144,38.703,460.261,42.28z"/>
	</g>
</g>
<g>
</g>
<g>
</g>
<g>
</g>
<g>
</g>
<g>
</g>
<g>
</g>
<g>
</g>
<g>
</g>
<g>
</g>
<g>
</g>
<g>
</g>
<g>
</g>
<g>
</g>
<g>
</g>
<g>
</g>
</svg>
