<?xml version="1.0" encoding="iso-8859-1"?>
<!-- Generator: Adobe Illustrator 19.0.0, SVG Export Plug-In . SVG Version: 6.00 Build 0)  -->
<svg version="1.1" id="Layer_1" xmlns="http://www.w3.org/2000/svg" xmlns:xlink="http://www.w3.org/1999/xlink" x="0px" y="0px"
	 viewBox="0 0 368 368" style="enable-background:new 0 0 368 368;" xml:space="preserve">
<g>
	<g>
		<g>
			<path d="M52,176h-4c-4.4,0-8,3.6-8,8c0,4.4,3.6,8,8,8h4c4.4,0,8-3.6,8-8C60,179.6,56.4,176,52,176z"/>
			<path d="M316,192h4c4.4,0,8-3.6,8-8c0-4.4-3.6-8-8-8h-4c-4.4,0-8,3.6-8,8C308,188.4,311.6,192,316,192z"/>
			<path d="M74,111.2l-3.2-2c-3.6-2.4-8.8-1.2-11.2,2.4c-2.4,3.6-1.2,8.8,2.4,11.2l3.2,2c1.2,0.8,2.8,1.2,4.4,1.2
				c2.8,0,5.2-1.2,6.8-3.6C78.8,118.4,77.6,113.6,74,111.2z"/>
			<path d="M122.8,62c-2.4-3.6-7.2-4.8-11.2-2.4c-4,2.4-4.8,7.2-2.4,11.2l2,3.2c1.6,2.4,4,3.6,6.8,3.6c1.6,0,2.8-0.4,4.4-1.2
				c3.6-2.4,4.8-7.2,2.4-11.2L122.8,62z"/>
			<path d="M298.4,126c1.6,0,2.8-0.4,4.4-1.2l3.2-2c3.6-2.4,4.8-7.2,2.4-11.2c-2.4-4-7.2-4.8-11.2-2.4l-3.2,2
				c-3.6,2.4-4.8,7.2-2.4,11.2C293.2,124.8,295.6,126,298.4,126z"/>
			<path d="M256.8,74l2-3.2c2.4-3.6,1.2-8.8-2.4-11.2c-3.6-2.4-8.8-1.2-11.2,2.4l-2,3.2c-2.4,3.6-1.2,8.8,2.4,11.2
				c1.2,0.8,2.8,1.2,4.4,1.2C252.8,77.6,255.2,76.4,256.8,74z"/>
			<path d="M184,60c4.4,0,8-3.6,8-8v-4c0-4.4-3.6-8-8-8c-4.4,0-8,3.6-8,8v4C176,56.4,179.6,60,184,60z"/>
			<path d="M184,0C82.4,0,0,82.4,0,184s82.4,184,184,184s184-82.4,184-184S285.6,0,184,0z M256,240h86.4
				c-23.2,65.2-85.2,112-158.4,112S48.8,305.2,25.6,240H112c4.4,0,8-3.6,8-8c0-4.4-3.6-8-8-8H20.8c-3.2-12.8-4.8-26.4-4.8-40
				C16,91.2,91.2,16,184,16s168,75.2,168,168c0,13.6-1.6,27.2-4.8,40H256c-4.4,0-8,3.6-8,8C248,236.4,251.6,240,256,240z"/>
			<path d="M200,195.2l23.6-88.8c1.2-4.4-1.2-8.8-5.6-9.6c-4.4-1.2-8.8,1.2-9.6,5.6l-24,89.6c0,0,0,0-0.4,0c-22,0-40,18-40,40
				s18,40,40,40s40-18,40-40C224,215.6,214,201.6,200,195.2z M184,256c-13.2,0-24-10.8-24-24s10.8-24,24-24s24,10.8,24,24
				S197.2,256,184,256z"/>
		</g>
	</g>
</g>
<g>
</g>
<g>
</g>
<g>
</g>
<g>
</g>
<g>
</g>
<g>
</g>
<g>
</g>
<g>
</g>
<g>
</g>
<g>
</g>
<g>
</g>
<g>
</g>
<g>
</g>
<g>
</g>
<g>
</g>
</svg>
